<?xml version="1.0" encoding="utf-8"?>
<!-- Generator: Adobe Illustrator 21.1.0, SVG Export Plug-In . SVG Version: 6.00 Build 0)  -->
<svg version="1.0" id="Layer_1" xmlns="http://www.w3.org/2000/svg" xmlns:xlink="http://www.w3.org/1999/xlink" x="0px" y="0px"
	 viewBox="0 0 60 60" enable-background="new 0 0 60 60" xml:space="preserve">
<g id="quangcaotot">
	<g id="Group-13-Copy">
		<g id="Quảng-cáo-Tốt">
			<circle id="Oval-5-Copy-2" fill="#CE9F3C" cx="30" cy="30" r="30"/>
		</g>
		
			<g id="megaphone" transform="translate(30.010894, 29.999524) rotate(-5.000000) translate(-30.010894, -29.999524) translate(13.010894, 14.999524)">
			<polygon id="Shape" fill="#FFFFFF" points="12.7,6 12.7,18.1 26.9,24.1 26.9,0 			"/>
			<path id="Shape_1_" fill="#FFFFFF" d="M28.6,7.5l0,9c2.8,0,5.1-2,5.1-4.5C33.7,9.6,31.4,7.5,28.6,7.5z"/>
			<path id="Shape_2_" fill="#FFFFFF" d="M6.8,6l0-1.8l-2.7,0l0,1.8H2.7C1.2,6,0,7.2,0,8.7l0,7.1c0,1.5,1.2,2.7,2.7,2.7l7.2,0L9.9,6
				L6.8,6z"/>
			<polygon id="Shape_3_" fill="#FFFFFF" points="7.8,21.2 2.8,21.2 3.5,29.7 8.5,29.7 			"/>
		</g>
	</g>
</g>
</svg>
