<svg height="30" viewBox="0 0 30 30" width="30" xmlns="http://www.w3.org/2000/svg" xmlns:xlink="http://www.w3.org/1999/xlink">
	<defs>
		<path d="M0 0h22.624v24.578H0z"></path>
	</defs>
	<g fill="none" fill-rule="evenodd">
		<g transform="translate(3.692 2.615)">
			<path class="svg-fill" d="M21.188 23.142h-5.42v-5.115c0-1.23-.45-2.386-1.27-3.255a4.34 4.34 0 0 0-3.186-1.384 4.34 4.34 0 0 0-3.186 1.384 4.719 4.719 0 0 0-1.27 3.255v5.115h-5.42V9.559L11.313 1.7l9.876 7.858v13.583zm1.235-14.437L11.608.101A.55.55 0 0 0 11.313 0a.575.575 0 0 0-.297.1L.202 8.706A.548.548 0 0 0 0 9.134v14.918c0 .275.236.526.496.526h7.3c.26 0 .497-.25.497-.526v-6.025c0-.863.312-1.669.878-2.27a2.92 2.92 0 0 1 2.141-.933 2.92 2.92 0 0 1 2.141.933c.567.601.879 1.407.879 2.27v6.025c0 .275.236.526.496.526h7.3c.26 0 .496-.25.496-.526V9.134a.552.552 0 0 0-.201-.429z" fill="#000">
			</path>
		</g>
		<path d="M1 1h28v28H1z" opacity=".01" stroke="#FFF" stroke-width=".5"></path>
	</g>
</svg>