<?xml version="1.0" encoding="UTF-8" standalone="no"?>
<svg width="32px" height="32px" viewBox="0 0 32 32" version="1.1" xmlns="http://www.w3.org/2000/svg" xmlns:xlink="http://www.w3.org/1999/xlink">
    <!-- Generator: Sketch 47.1 (45422) - http://www.bohemiancoding.com/sketch -->
    <title>02</title>
    <desc>Created with Sketch.</desc>
    <defs></defs>
    <g id="Page-1" stroke="none" stroke-width="1" fill="none" fill-rule="evenodd">
        <g id="02" fill="#000000">
            <g id="Page-1" transform="translate(5.000000, 10.000000)">
                <path d="M21.6872966,0.304912017 C21.4905836,0.108934709 21.2282996,-0.0004 20.9512092,-0.0004 C20.6741187,-0.0004 20.4128923,0.107903249 20.2161793,0.304912017 L11.4529308,9.04034265 L10.9992217,9.49315338 L10.5455126,9.04034265 L1.78437935,0.304912017 C1.58660871,0.108934709 1.32538226,-0.0004 1.04829186,-0.0004 C0.771201454,-0.0004 0.509975004,0.107903249 0.313261968,0.304912017 C-0.104488833,0.720590201 -0.104488833,1.39619618 0.312204372,1.80981145 L10.2292911,11.6973824 C10.4249466,11.8923282 10.6851154,11.9996 10.9653786,11.9996 L11.0341224,11.9996 C11.313328,11.9996 11.5756121,11.8923282 11.7712675,11.6973824 L21.6872966,1.81084291 C22.1039898,1.39619618 22.1039898,0.720590201 21.6872966,0.304912017" id="Fill-1"></path>
            </g>
        </g>
    </g>
</svg>