<svg viewBox="0 0 19 24"
	xmlns="http://www.w3.org/2000/svg">
	<g fill="none" fill-rule="evenodd">
		<path d="M1 1h16.762v21.79H1z" opacity=".01" stroke="#000" stroke-width=".5"></path>
		<path class="svg-fill" d="M14.535 9.996l-.03 8.149H4.207l-.03-8.148c0-2.953 2.226-5.181 5.179-5.183 2.952.002 5.18 2.23 5.18 5.182zm-3.775 9.296c-.194.635-.75 1.066-1.404 1.067-.654-.001-1.21-.432-1.404-1.067h2.808zm5.88-1.147h-.947l-.01-8.17c0-3.381-2.409-6-5.746-6.277v-.873c0-.37-.292-.566-.582-.568-.288.002-.58.198-.58.568v.873c-3.337.276-5.746
			2.896-5.746 6.277l-.01 8.17H2.07c-.373 0-.568.293-.568.584 0 .29.195.584.568.584h4.692a2.642 2.642 0 0 0 2.593 2.215 2.641 2.641 0 0 0 2.593-2.215h4.692c.373 0 .568-.294.568-.584s-.195-.584-.568-.584z"
			fill="#000"></path>
	</g>
</svg>