
<svg height="22" viewBox="0 0 22 22" width="22"
	xmlns="http://www.w3.org/2000/svg">
	<g fill="none" fill-rule="evenodd">
		<path d="M13.59 13.56a6.334 6.334 0 0 1-4.494 1.858 6.33 6.33 0 0 1-4.494-1.858A6.319 6.319 0 0 1 2.74 9.077a6.317 6.317 0 0 1 1.862-4.483 6.335 6.335 0 0 1 4.494-1.856 6.331 6.331 0 0 1 4.494 1.857 6.317 6.317 0 0 1 1.862 4.482 6.317 6.317 0 0 1-1.862 4.483zm.797.25l.318-.41a6.999 6.999 0 0 0 1.486-4.322 7.053 7.053 0 0 0-2.078-5.005A7.073 7.073 0 0 0 9.096 2a7.067 7.067 0 0 0-5.018 2.073A7.053 7.053 0 0 0 2 9.077a7.054 7.054 0 0 0 2.078 5.005 7.072 7.072 0 0 0 5.017 2.073 7.034 7.034 0 0 0 4.327-1.478l.412-.317 5.54 5.526a.388.388 0 0 0 .551 0 .386.386 0 0 0 0-.55l-5.538-5.525z"
			stroke="#FE9900"
			stroke-width="1.3">
		</path>
		<path d="M1 1h20v20H1z" opacity=".01" stroke="#FFF"
			stroke-width=".1"></path>
		</g>
	</svg>