<?xml version="1.0" encoding="utf-8"?>
<!-- Generator: Adobe Illustrator 21.1.0, SVG Export Plug-In . SVG Version: 6.00 Build 0)  -->
<svg version="1.2" baseProfile="tiny" id="Layer_1" xmlns="http://www.w3.org/2000/svg" xmlns:xlink="http://www.w3.org/1999/xlink"
	 x="0px" y="0px" viewBox="0 0 60 60" xml:space="preserve">
<g id="caidat">
	<g id="Cài-đặt-Copy">
		<circle id="Oval-5-Copy-8" fill="#68665E" cx="30" cy="30" r="30"/>
		<path id="Page-1" fill="#FFFFFF" d="M30,36c-3.3,0-6-2.7-6-6c0-3.3,2.7-6,6-6c3.3,0,6,2.7,6,6C36,33.3,33.3,36,30,36 M44.5,27.6
			h-2.2l-0.1-0.5c-0.3-1.3-0.8-2.6-1.6-3.8l-0.3-0.4l1.5-1.5c0.2-0.2,0.2-0.5,0-0.7L39.2,18c-0.2-0.2-0.5-0.2-0.7,0l-1.5,1.5
			l-0.4-0.3c-1.2-0.7-2.4-1.3-3.8-1.6l-0.5-0.1v-2.2c0-0.3-0.2-0.5-0.5-0.5h-3.9c-0.3,0-0.5,0.2-0.5,0.5v2.2l-0.5,0.1
			c-1.3,0.3-2.6,0.8-3.8,1.6l-0.4,0.3L21.4,18c-0.2-0.2-0.5-0.2-0.7,0L18,20.8c-0.2,0.2-0.2,0.5,0,0.7l1.5,1.5l-0.3,0.4
			c-0.7,1.2-1.3,2.4-1.6,3.8l-0.1,0.5h-2.2c-0.3,0-0.5,0.2-0.5,0.5v3.9c0,0.3,0.2,0.5,0.5,0.5h2.2l0.1,0.5c0.3,1.3,0.8,2.6,1.6,3.8
			l0.3,0.4L18,38.6c-0.2,0.2-0.2,0.5,0,0.7l2.7,2.7c0.2,0.2,0.5,0.2,0.7,0l1.5-1.5l0.4,0.3c1.2,0.7,2.4,1.3,3.8,1.6l0.5,0.1v2.2
			c0,0.3,0.2,0.5,0.5,0.5h3.9c0.3,0,0.5-0.2,0.5-0.5v-2.2l0.5-0.1c1.3-0.3,2.6-0.8,3.8-1.6l0.4-0.3l1.5,1.5c0.2,0.2,0.5,0.2,0.7,0
			l2.7-2.7c0.2-0.2,0.2-0.5,0-0.7l-1.5-1.5l0.3-0.4c0.7-1.2,1.3-2.4,1.6-3.8l0.1-0.5h2.2c0.3,0,0.5-0.2,0.5-0.5v-3.9
			C45,27.8,44.8,27.6,44.5,27.6"/>
	</g>
</g>
</svg>
