<?xml version="1.0" encoding="utf-8"?>
<!-- Generator: Adobe Illustrator 21.1.0, SVG Export Plug-In . SVG Version: 6.00 Build 0)  -->
<svg version="1.0" id="Layer_1" xmlns="http://www.w3.org/2000/svg" xmlns:xlink="http://www.w3.org/1999/xlink" x="0px" y="0px"
	 viewBox="0 0 60 60" enable-background="new 0 0 60 60" xml:space="preserve">
<g id="dangxuat">
	<g id="Đăng-xuất-Copy">
		<circle id="Oval-5-Copy-15" fill="#68665E" cx="30" cy="30" r="30"/>
		<g id="Page-1" transform="translate(14.000000, 12.000000)">
			<g id="Group-2">
				<path id="Fill-1" fill="#FFFFFF" d="M10.4,27.6c-0.2,0-0.5-0.1-0.9-0.4l-9-9c-0.6-0.6-0.6-1.6,0-2.3l9-9
					c0.3-0.3,0.6-0.4,0.9-0.4c0.5,0,1,0.4,1,1.2v4.5c0,0.1,0.1,0.3,0.3,0.3h8.5c0.9,0,1.6,0.7,1.6,1.6v6.1c0,0.9-0.7,1.6-1.6,1.6
					h-8.5c-0.1,0-0.3,0.1-0.3,0.3v4.5C11.3,27.2,10.8,27.6,10.4,27.6"/>
				<g id="Group-5" transform="translate(9.908571, 0.047924)">
					<defs>
						<filter id="Adobe_OpacityMaskFilter" filterUnits="userSpaceOnUse" x="-0.5" y="-0.5" width="22.2" height="34.9">
							<feColorMatrix  type="matrix" values="1 0 0 0 0  0 1 0 0 0  0 0 1 0 0  0 0 0 1 0"/>
						</filter>
					</defs>
					<mask maskUnits="userSpaceOnUse" x="-0.5" y="-0.5" width="22.2" height="34.9" id="mask-2">
						<g filter="url(#Adobe_OpacityMaskFilter)">
							<polygon id="path-1" fill="#FFFFFF" points="10.6,33.9 21.2,33.9 21.2,0 10.6,0 0,0 0,33.9 							"/>
						</g>
					</mask>
					<path id="Fill-3" mask="url(#mask-2)" fill="#FFFFFF" stroke="#FFFFFF" d="M16.5,0H0v1.3h16.5c1.9,0,3.4,1.5,3.4,3.4v24.5
						c0,1.9-1.5,3.4-3.4,3.4H0v1.3h16.5c2.6,0,4.7-2.1,4.7-4.7V4.7C21.2,2.1,19.1,0,16.5,0"/>
				</g>
			</g>
		</g>
	</g>
</g>
</svg>
