<?xml version="1.0" encoding="utf-8"?>
<!-- Generator: Adobe Illustrator 19.2.1, SVG Export Plug-In . SVG Version: 6.00 Build 0)  -->
<svg version="1.1" id="Layer_1" xmlns="http://www.w3.org/2000/svg" xmlns:xlink="http://www.w3.org/1999/xlink" x="0px" y="0px"
	 viewBox="0 0 231.3 60" style="enable-background:new 0 0 231.3 60;" xml:space="preserve">
<style type="text/css">
	.st0{fill:#D65442;}
	.st1{opacity:0.4;}
	.st2{fill:#231F20;}
	.st3{fill:#6D6E70;}
	.st4{fill:#024344;}
	.st5{fill:#5A765A;}
	.st6{fill:#58595B;}
	.st7{fill:#404041;}
	.st8{fill:#E6E7E8;}
	.st9{fill:#929497;}
	.st10{fill:#FCD57A;}
	.st11{fill:#DCE0D0;}
	.st12{fill:#FFFFFF;}
	.st13{fill:#BBBDBF;}
	.st14{fill:#7A8283;}
	.st15{fill:#D0D2D3;}
	.st16{fill:#808184;}
	.st17{fill:#94938C;}
	.st18{fill:#6D8B6B;}
	.st19{fill:#A6A8AB;}
</style>
<path class="st0" d="M91.8,22.5c0.1,0,0.1,0,0.2,0C91.9,22.6,91.8,22.6,91.8,22.5z"/>
<g class="st1">
	<g>
		<path d="M104.7,44.2c-1.2,0.6-3.9,1.2-7.4,1.2C87.2,45.4,82,39.1,82,30.8c0-9.9,7.1-15.4,15.9-15.4c3.4,0,6,0.7,7.2,1.3l-1.4,5.2
			c-1.3-0.6-3.2-1.1-5.5-1.1c-5.2,0-9.3,3.1-9.3,9.6c0,5.8,3.4,9.5,9.3,9.5c2,0,4.2-0.4,5.5-0.9L104.7,44.2z"/>
		<path d="M109.4,14.3h6.6v12.1h0.1c0.7-0.9,1.6-1.7,2.6-2.2s2.2-0.8,3.4-0.8c4.2,0,7.4,2.9,7.4,9.3V45h-6.6V33.4
			c0-2.8-0.9-4.7-3.4-4.7c-1.7,0-2.8,1.1-3.3,2.3c-0.2,0.4-0.2,1-0.2,1.4v12.5h-6.6V14.3z"/>
		<path d="M158.9,23.8c0-1.5-0.4-3-0.9-4.1l-4.6,0.8c0.5,0.9,0.9,1.9,0.9,3c0,1-0.5,1.6-1.5,1.6s-2.4-0.8-3.5-1.2
			c-1.2-0.4-2.4-0.6-3.9-0.6c-6.8,0-11.3,4.4-11.3,11.2s4.7,10.9,10.9,10.9c5.7,0,11.2-3.5,11.2-11.3c0-2.3-0.6-4.2-1.5-5.8
			C157.4,28.1,158.9,26.5,158.9,23.8z M145.2,40.7c-2.8,0-4.3-2.7-4.3-6.4c0-3.1,1.2-6.4,4.3-6.3c3,0,4.2,3.2,4.2,6.3
			C149.4,38.2,147.8,40.8,145.2,40.7z"/>
		<path d="M147.5,49.5c0,1.3-1,2.3-2.3,2.3s-2.3-1.1-2.3-2.3c0-1.4,1-2.3,2.4-2.3C146.6,47.1,147.5,48.1,147.5,49.5z"/>
		<path d="M176.9,21.4H169v-5.5h22.4v5.5h-8V45h-6.6L176.9,21.4z"/>
		<path d="M212.7,34.2c0,7.7-5.5,11.3-11.2,11.3c-6.2,0-10.9-4.1-10.9-10.9c0-6.9,4.5-11.2,11.3-11.2
			C208.3,23.4,212.7,27.8,212.7,34.2z M204.1,16l3.8,6.6h-4.2l-1.9-3.8h-0.1l-1.9,3.8h-4.2l3.9-6.6H204.1z M197.4,34.4
			c0,3.6,1.5,6.4,4.3,6.4c2.6,0,4.2-2.5,4.2-6.4c0-3.1-1.2-6.3-4.2-6.3C198.6,28.1,197.4,31.3,197.4,34.4z M214.7,11.8l-5,6.5h-3.4
			l3.3-6.5L214.7,11.8z"/>
		<path d="M224.7,18.2v5.7h4.7v4.8h-4.7v7.6c0,2.5,0.6,3.7,2.6,3.7c0.9,0,1.3,0,1.9-0.2v5c-0.8,0.3-2.4,0.6-4.2,0.6
			c-2.1,0-3.9-0.7-5-1.8c-1.2-1.3-1.8-3.3-1.8-6.3v-8.6h-2.8v-4.8h2.8V20L224.7,18.2z"/>
	</g>
	<g>
		<polygon class="st2" points="46.4,34.5 43.7,31.8 43.7,27.3 51.3,23.4 51.6,24.7 		"/>
		<path class="st3" d="M51.9,15.7c1-0.3,2.1-0.5,3.2-0.8c0.1,0.1,1.9,2.5,2.7,3.4c0,0.5,0.1,2.7,0.1,3c-0.9-0.1-1.3-0.8-1.9-1.5
			C54.7,18.5,53,17,51.9,15.7"/>
		<path class="st2" d="M6.6,21.3c0,0.4,0.1,0.6,0.1,0.9c-0.7-0.1-4-0.4-4.5-0.4c-0.1-0.4-0.2-0.5-0.3-1L6.6,21.3z"/>
		<path class="st3" d="M6.6,21.3c10.3,0.9,20.6,1.8,30.9,2.7c0,2.5,0.1,4.8,0.1,7.2c-2.6-0.1-5-0.3-7.6-0.4
			c-3.7,0.2-17.9,8.5-18.4,9.3c-0.8,0.2-1.6,0.4-2.4,0.6C8.3,34.6,6.6,21.6,6.6,21.3"/>
		<path class="st4" d="M59.9,21.1c0.2,0.4,0.5,0.7,0.7,1c0,0-0.7,0.2-0.8,0.2C59.8,22.1,59.8,21.6,59.9,21.1"/>
		<path class="st5" d="M18.3,33.5c0-0.1,0.1-0.1,0.1-0.2c1.1,0,2.3-0.1,3.3,0.1C20.5,33.5,19.2,33.3,18.3,33.5"/>
		<path class="st2" d="M57.9,22.8c-0.7,0.2-7.3,1.9-7.8,2C50,24.2,49,19,48.6,16.5c1.1-0.2,2.2-0.5,3.3-0.8c1-0.3,2.1-0.5,3.2-0.8
			c0.8-0.3,1.7-0.4,2.6-0.6c0,0.4,0.2,2.9,0.2,4.1C57.8,18.9,57.9,22.8,57.9,22.8 M72.8,30.7c-0.3,0.8-0.7,1.7-1,2.4l0,0
			C72.1,32.4,72.5,31.5,72.8,30.7c-3.6-3-7.3-5.8-10.9-8.8c-0.6,0.1-2.1,0.5-2.2,0.5c0.1-2.5,0.5-5.8,0.8-8.8c1-0.2,1.9-0.5,2.9-0.6
			c0.5-3.8,1-7.7,1.5-11.5c-0.2,0-18.9,2.8-27.6,4.6c-0.1,0.4,5.6,11,5.6,11c0.1,0,0.2,0,0.2-0.1c0.1,0.2,0.3,0.4,0.4,0.6
			c0.8-0.2,2.3-0.5,2.6-0.6c0.7,2.6,1.9,8.3,1.9,8.4c-0.8,0.2-2.5,0.7-3.2,0.8v0.5l-0.1,3.4c0.2,0.3,1.3,1.8,1.6,2.1
			c0.1,0.7,0.3,2.2,0.3,2.2s5.2,5.4,5.6,5.8c0.9,0.3,1.3,0.3,1.9,0.6c0-0.3,0.3-2.7,0.2-3.3c0.8-0.3,5.8-1.3,7.1-1.5
			c0-0.1,1-0.2,2.6-0.6c-0.1,1.5-0.4,3.4-0.6,4.9c-0.1,0.7,0,1.1-0.2,1.8c-0.3,0.4-0.4,0.6-0.8,1c0.1,0.2,0.3,0.4,0.4,0.6
			c0.3-0.2,0.6-0.7,0.9-1c0.3-2.1,0.5-5.1,0.7-7.4c0.3,0,0.5-0.1,0.8-0.1c0-0.1,0-0.2,0-0.3c1.6-0.4,3.5-0.8,5.4-1.2
			c-0.6,5.5-1.4,10.9-2,16.4c-0.3,0.2-0.8,0.5-1.1,0.6c0.2,0.1,0.1,0.2,0.6,0.5c0.5-0.2,0.7-0.3,1-0.5c0.7-5.7,1.4-11.3,2.1-16.9
			c0.5-0.1,0.6-0.1,1.1-0.2c0.3-0.8,0.7-1.6,1-2.4C73.2,31.1,73,30.9,72.8,30.7"/>
		<path class="st6" d="M57.9,22.8c-0.1,0-4.4,1.2-6.4,1.7c-0.1-0.4-0.1-0.7-0.2-1c-0.6,0.3-0.7,0.4-1.3,0.7
			c-0.4-2.5-0.9-5.1-1.4-7.7c1.1-0.2,2.2-0.5,3.3-0.8c1.1,1.2,5.2,5.1,6,5.7C57.9,21.4,57.9,22.6,57.9,22.8"/>
		<path class="st7" d="M37.5,24.1c1.1,0.1,1.9,0.2,2.8,0.1c0.6-0.7,3.5-5.4,4.3-6.8c0.5-0.1,0.9-0.2,1.4-0.3
			c0.2,0.8,1.2,5.4,1.9,8.1c-0.5,0.3-0.8,0.4-1.1,0.5c-0.7,0.2-1.3,0.4-2,0.5c0,0.2,0,0.5,0,0.7c0,0-0.5,0.2-0.9,0.5
			c0,0.8-0.1,3.8-0.1,4.3c-2.1-0.2-4-0.2-6.2-0.4C37.6,28.9,37.5,26.6,37.5,24.1"/>
		<path class="st8" d="M18.3,25.2c0.1,1.4,0.3,2.1,0.5,3.3c-1.6-0.1-3.1-0.3-4.6-0.5c-0.2-1.1-0.3-2.3-0.4-3.5
			C15.2,24.7,16.8,24.9,18.3,25.2"/>
		<path class="st9" d="M43.4,17.7c-0.1-0.2-0.2-0.4-0.3-0.6c-0.1-0.1-0.1,0-0.3,0c-0.7-1.4-3.7-7.7-4.8-9.7
			c-2.3-0.1-19.8-1.2-20.8-1.3C16.8,6.5,3.8,18.8,1.9,20.8c0.9,0.1,3.8,0.4,4.7,0.5c10.3,0.9,31.4,2.9,33.7,3.1
			c0.5-0.7,3.5-5.6,4.4-7C44.2,17.5,43.8,17.6,43.4,17.7"/>
		<path class="st8" d="M12,24.2c0.1,1.2,0.3,2.4,0.4,3.6c-1.2,0-2.2-0.3-3.4-0.3c0-1.2-0.3-2.5-0.3-3.6C10,24.1,10.9,24.2,12,24.2"
			/>
		<path class="st8" d="M12.6,29.6c0.2,1.7,0.5,3.4,0.6,5.2c-1.2-0.3-2.4-0.5-3.6-0.8c-0.3-1.5-0.3-3.3-0.5-4.8
			C10.3,29.3,11.5,29.4,12.6,29.6"/>
		<path class="st8" d="M15,34.9c-0.2-1.7-0.5-3.4-0.6-5.2c1.5,0.2,3.1,0.3,4.6,0.5c0.1,0.8,0.1,1,0.2,1.5c-0.8,0.2-1.5-0.1-2,0.2
			c-0.4,0.2-0.7,1-1,1.5C15.7,34,15.3,34.5,15,34.9"/>
		<path class="st10" d="M61.3,36c0.1,0.1,0,0.4,0.1,0.5C61.2,36.5,61.3,36.2,61.3,36"/>
		<path class="st11" d="M13.2,56.9c-0.1,0.1-0.5,0.1-0.5,0H13.2z"/>
		<path class="st7" d="M30,30.8c1.7,3.7,3.2,7.6,4.8,11.4c2.9,1.8,6,3.3,8.9,5.1c0,1-1.2,6.6-1.6,7.8c-1.9,0-36.9-3.6-37.9-3.8
			c-0.1-0.2-0.2-8.8-0.2-9c0.1,0,0-0.1,0.1-0.1c1.6-0.6,6.8-1.9,7.6-2.1c0.5-0.8,5-8,5.4-8.2C17.6,31.6,26.3,31,30,30.8"/>
		<path class="st2" d="M4.2,51.3c1,0.1,2.1,0.3,3.2,0.3c0,0.3,0.1,0.5,0.2,0.8c-0.9-0.1-2.2-0.2-3.2-0.4C4.4,51.8,4.3,51.5,4.2,51.3
			"/>
		<path class="st3" d="M30,30.8c2.6,0.1,5,0.3,7.6,0.4c2.2,0.2,4.1,0.2,6.2,0.4c0,0.1,7.9,8.2,8.3,8.6c0.5,0.1,14.4,4.8,15,4.9
			c-7.6,0.8-15.8,1.4-23.4,2.1c-2.9-1.8-6-3.3-8.9-5.1C33.2,38.4,31.7,34.5,30,30.8"/>
		<path class="st12" d="M50.4,40.4c-1.2,0.2-10.3,1.1-13.8,1.4c-0.4-0.8-0.6-1.3-1-2.1c-0.7-1.5-1.5-3-2.3-4.6
			c-0.4-0.8-0.8-1.7-1.1-2.6c0.9,0,2,0.1,2.9,0.1c2.2,0.1,4.6,0.2,6.9,0.3c0.4,0,0.8,0,1.3,0.1C43.7,33.2,49.3,39.2,50.4,40.4"/>
		<path class="st13" d="M64,34.8c-0.1,1.5-0.7,6.3-0.8,7.4c-0.2,0.4-0.4,0.5-0.8,1c-0.3-0.3-0.5-0.6-0.9-1c-0.1-2-0.2-6.5-0.2-6.8
			C62.2,35.2,63,34.9,64,34.8"/>
		<path class="st2" d="M54,40.3c0.1-0.5,0.1-0.7,0.1-1.2c0.9-0.7,1.7-1.4,2.5-2.1c0.5-0.1,0.9-0.2,1.3-0.3
			C57.3,37.3,54.9,39.6,54,40.3"/>
		<path class="st14" d="M10,55.1c5.2,2,7.7-5.4,4.4-8.5h0.1c1.3,0.8,2.1,2,2.3,3.9v1.1c0,0.4-0.1,0.6-0.1,0.9
			C16.1,55.3,12.4,57.3,10,55.1L10,55.1z"/>
		<path class="st14" d="M34.9,55.4c0.9-2.1,0.2-4.8-1-6.1c0.3,0.2,1.4,1.2,2,2.6c0.4,1,0.4,1.9,0.3,2.6c-0.4,1.9-1.6,3.9-3.7,4.1
			c-1.3,0.1-2.4-0.2-3.1-0.8C32.1,58.8,34.1,57.2,34.9,55.4"/>
		<path class="st15" d="M21.4,40.9c0.6-2.7,1.2-5.9,1.6-7.5c1.8-0.2,3.6-0.4,5.4-0.4c0.5,0.5,3.5,6.7,4.3,8.8
			C31.3,41.7,23.2,41.1,21.4,40.9"/>
		<path class="st16" d="M54.1,39.1c0.1-1,0.1-1.1,0.1-1.6c0.9-0.2,1.6-0.3,2.4-0.6C55.8,37.7,55,38.3,54.1,39.1"/>
		<path class="st15" d="M22,33.4c-0.1,0.3-1.3,5.7-1.8,7.4c-2.1,0-4.3-0.2-6.3-0.3c1-1.9,3.9-6.6,4.4-7.1
			C19.2,33.5,20.9,33.5,22,33.4"/>
		<path class="st2" d="M67,45.2c0.3,0.4,0.4,0.6,0.6,1c-0.1,0.7-0.3,1.4-0.4,2c-0.2,0.7-0.4,1.3-0.5,1.9c-0.3,1-0.5,1.6-0.8,2.7
			c-2,0.3-4.1,0.6-6.1,0.8c-0.7,1.6-1.6,3-3.7,3.2c-1.9,0-2.9-0.8-3.6-1.8c1.2,0.9,2.3,1.2,3.8,0.8c1.1-0.3,2.2-1,2.9-3.1
			c2-0.3,4.2-0.5,6.2-0.9C66.1,49.9,66.4,47.3,67,45.2"/>
		<path class="st6" d="M65.4,51.9c-2,0.3-4.1,0.6-6.2,0.9c-2.5,0.3-5.1,0.6-7.5,1c-3.2,0.4-6.3,0.9-9.5,1.2c0.4-1.1,1.6-6.7,1.6-7.8
			c7.6-0.7,15.7-1.3,23.3-2.1C66.9,45.6,66.1,49.9,65.4,51.9"/>
		<path class="st17" d="M33.9,49.3c1.3,1.4,2,4,1.1,6.1c-0.7,1.8-2.9,3-4.9,2.6c-2.8-0.6-3.4-3.4-3.2-5.3c0.2-2.6,1.4-4.1,3.7-4.6
			C31.9,48,33,48.6,33.9,49.3"/>
		<path class="st14" d="M51.6,53.8c2.4-0.4,5-0.7,7.5-1c-0.2,0.6-0.4,1.3-0.8,1.7c-0.6,0.8-1.5,1.5-3.4,1.5
			C53.8,56,51.7,54.8,51.6,53.8"/>
		<path class="st2" d="M27,54.3c-3.3-0.3-6.5-0.7-9.9-1c-0.6,1.8-1.6,3.2-3.8,3.5h-0.5c-1.4-0.2-2.3-0.8-2.9-1.7
			c0-0.1,0.2,0,0.2,0.1c2.5,2.1,6.1,0.1,6.6-2.6c3.5,0.3,6.9,0.7,10.3,1c0,0,0,0.1,0.1,0.1C26.9,53.9,27,54.1,27,54.3"/>
		<path class="st2" d="M32.5,58.6c2.1-0.2,3.3-2.2,3.7-4.1c2,0.2,3.9,0.4,6,0.5c3.2-0.4,6.3-0.9,9.5-1.2c0,0.3,0.3,0.6,0.4,0.8
			c-2.4,0.3-4.8,0.7-7.3,1c-0.8,0.1-2,0.3-2.9,0.3c-1.2-0.1-4.1-0.5-5.2-0.6c-0.2,0.9-0.4,1.6-0.9,2.3c-0.8,1.1-2,1.9-3.5,1.8
			c-1.3,0-2.3-0.7-3-1.7C29.6,57.9,31.2,58.8,32.5,58.6"/>
		<path class="st18" d="M16.6,50.6c0.1,0.2,0.1,0.8,0,1.1V50.6z"/>
		<path class="st15" d="M57.7,13.6c-3.2,0.8-6.4,1.5-9.7,2.3c0.5,3,1,6.1,1.6,9.1c0.2-0.1,8.3-2.2,8.3-2.2
			C57.9,22.7,57.7,14.3,57.7,13.6 M44.7,26.2c0.7-0.1,2.8-0.8,3.2-0.8c0-0.3-1.8-7.9-2.2-9c-0.9,0.3-2,0.4-3,0.7
			c0,0-5.8-10.5-5.7-11.2c8.7-1.8,18.1-3.3,27.1-5c0,0.3-1,7.9-1.4,11.5C62,12.6,61,12.9,60.1,13c-0.4,3.5-0.5,5.6-0.9,9.4
			c0.3,0,2.2-0.6,2.8-0.7c3.6,3,7.2,6,10.8,9c-0.2,0.5-0.6,1.6-1,2.4c-2.1,0.3-14.8,3.1-18,3.8c0,0.2-0.1,3.5-0.1,3.8
			c-0.5-0.1-0.9-0.3-1.6-0.5c-0.8-0.8-4.7-4.9-5.6-5.8c0,0-0.1-1.3-0.2-1.9c-0.5-0.7-1.4-1.8-1.7-2.2L44.7,26.2z"/>
		<path class="st19" d="M71.8,33.1c-0.9,0.2-20,4.2-21.6,4.6c0.2-1,0.4-1.6,0.5-2.4c7.4-1.5,14.7-3.1,22.1-4.6
			C72.8,30.7,72.1,32.4,71.8,33.1"/>
		<path class="st13" d="M70.6,33.4c-0.7,5.6-1.4,11.1-2,16.8c-0.3,0.2-0.6,0.4-1.1,0.6c-0.3-0.3-0.7-0.5-0.9-0.7
			c0.3-1.2,0.8-3.2,0.9-3.9c-0.2-0.5-0.3-0.6-0.5-1c-0.4-0.1-0.7-0.2-1.1-0.3c-0.2-3.2-0.7-9.3-0.8-10.3
			C67.1,34.1,68.6,33.8,70.6,33.4"/>
		<path class="st19" d="M44.6,30.3c1.3,1.8,2.9,4,5.6,7.4c0.2-1,0.4-1.6,0.5-2.4c-2.5-3.7-4.3-6.1-6-9.2
			C44.8,26.2,44.6,28.7,44.6,30.3"/>
		<path class="st17" d="M14,46.4c-0.4-0.3-0.8-0.6-1.3-0.7c-0.6-0.2-1.4-0.2-2,0c-2.5,0.7-3.6,3-3.3,5.9c0.1,0.5,0.4,1.7,1.2,2.4
			c0.3,0.4,0.7,0.7,1,0.9s0.7,0.4,1.4,0.5c4.3,0.7,6.3-5.6,3.6-8.5C14.5,46.9,14.1,46.5,14,46.4"/>
	</g>
</g>
</svg>
